<svg>
  <symbol xmlns="http://www.w3.org/2000/svg"  fill="none" aria-hidden="true" viewBox="0 0 94 32" id="logo-trello">
    <path fill="var(--ds-text, #172B4D)" fill-rule="evenodd" clip-rule="evenodd" d="M68.749 23.79c-2.5 0-4.075-1.212-4.075-4.033V5h3.841v14.23c0 .818.542 1.108 1.198 1.108a4 4 0 0 0 .566-.027v3.32c-.5.124-1.015.178-1.53.16M38.712 9.985v-3.61H26.03v3.61h4.275v13.698h4.126V9.985zm1.438 13.698h3.814v-7.06c0-2.159 1.264-2.818 3.943-2.608v-3.988c-2.063-.132-3.221.946-3.943 2.763v-2.58H40.15zm32.54-3.926c0 2.82 1.572 4.033 4.072 4.033a5.6 5.6 0 0 0 1.536-.159v-3.32q-.284.033-.57.027c-.655 0-1.197-.29-1.197-1.108V5h-3.84zm7.454-2.817c0-4.161 2.396-7.009 6.521-7.009 4.126 0 6.47 2.854 6.47 7.01S90.764 24 86.665 24s-6.52-2.925-6.52-7.06m3.737 0c0 2.03.85 3.635 2.784 3.635S89.4 18.97 89.4 16.94s-.827-3.593-2.734-3.593-2.77 1.563-2.77 3.593zm-27.603 1.422a32 32 0 0 1-3.219-.189c.353 1.926 1.767 2.596 3.82 2.596 1.521 0 3.006-.419 4.32-.838v3.242c-1.423.54-2.935.81-4.457.794-5.129 0-7.398-2.566-7.398-6.886 0-4.147 2.628-7.141 6.736-7.141 3.05 0 5.587 2.066 5.587 4.811 0 2.827-2.47 3.611-5.39 3.611m1.673-3.745c0-1.003-.868-1.737-1.949-1.737L56 12.871a2.83 2.83 0 0 0-2.446 1.485 4.5 4.5 0 0 0-.527 1.797q.991.153 1.994.158c1.566 0 2.931-.401 2.931-1.694"/><defs><linearGradient id="a" x1="9.338" y1="23.682" x2="9.338" y2="5.006" gradientUnits="userSpaceOnUse"><stop stop-color="#0052CC" offset="0%"/><stop stop-color="#2684FF" offset="100%"/></linearGradient></defs><path fill-rule="evenodd" clip-rule="evenodd" d="M16.458 5H2.218A2.22 2.22 0 0 0 0 7.219v14.248a2.22 2.22 0 0 0 2.219 2.218h14.239a2.22 2.22 0 0 0 2.218-2.218V7.225A2.22 2.22 0 0 0 16.458 5M8.045 18.473a.74.74 0 0 1-.737.74H4.186a.743.743 0 0 1-.74-.74V9.192a.743.743 0 0 1 .74-.74h3.122a.74.74 0 0 1 .737.74zm7.185-4.254a.743.743 0 0 1-.74.739h-3.122a.74.74 0 0 1-.736-.74V9.193a.74.74 0 0 1 .736-.74h3.123a.743.743 0 0 1 .74.74z" fill="url(#a)"/>
  </symbol>
  <symbol role="presentation" viewBox="0 0 24 24" xmlns="http://www.w3.org/2000/svg" id="notification">
    <path fill="currentcolor" fill-rule="evenodd" d="M6.59 17.83a2 2 0 0 0 2.83 0L6.59 15a2 2 0 0 0 0 2.83m4.79-12.35A5.04 5.04 0 0 1 14.95 4c.97 0 1.95.28 2.79.84q.03-.04.07-.07a1.01 1.01 0 1 1 1.35 1.49 5.05 5.05 0 0 1-.64 6.36l-.72.73c-.78.78-1.81 2.21-2.31 3.21l-1.51 3.02c-.25.5-.77.58-1.17.19l-8.56-8.55c-.4-.4-.31-.92.19-1.17l3.02-1.51c.99-.49 2.42-1.53 3.21-2.31zm2.74 9.63c.52-.97 1.57-2.4 2.35-3.18l.73-.73a3.05 3.05 0 0 0 .39-3.83c-.19-.29-.72-.77-.86-.86A3.04 3.04 0 0 0 15.05 6c-.8 0-1.57.31-2.16.89l-.95.95c-.78.79-2.22 1.82-3.2 2.31L7 11.02l6.07 6.07z"/>
  </symbol>
  <symbol role="presentation" xmlns="http://www.w3.org/2000/svg" viewBox="0 0 24 24" id="question-mark">
    <path fill-rule="evenodd" clip-rule="evenodd" d="M2 12C2 6.47667 6.47667 2 12 2C17.5233 2 22 6.47667 22 12C22 17.5233 17.5233 22 12 22C6.47667 22 2 17.5233 2 12ZM4 12C4 16.4188 7.58124 20 12 20C16.4188 20 20 16.4188 20 12C20 7.58124 16.4188 4 12 4C7.58124 4 4 7.58124 4 12ZM8 10C7.99999 7.48383 10.3214 5.51108 12.9389 6.10713C14.3829 6.43513 15.5569 7.60513 15.8899 9.04813C16.3809 11.1771 15.1719 13.0911 13.3589 13.7471C13.1549 13.8201 13.0099 14.0021 13.0099 14.2191V14.0001C13.0099 14.5521 12.5629 15.0001 12.0099 15.0001C11.4579 15.0001 11.0099 14.5521 11.0099 14.0001V12.9871C11.0179 12.4411 11.4599 12.0001 11.9999 12.0001C13.1029 12.0001 13.9999 11.1021 13.9999 10.0001C13.9999 8.89713 13.1029 8.00013 11.9999 8.00013C10.8959 8.00013 9.99935 8.92313 10.0004 10.0271C9.98522 10.5666 9.54291 11 9 11C8.47773 11 8.04856 10.599 8.00385 10.0882C8.00385 10.0882 8 10.0297 8 10ZM12 18C11.448 18 11 17.552 11 17C11 16.448 11.448 16 12 16C12.552 16 13 16.448 13 17C13 17.552 12.552 18 12 18Z" fill="currentColor"></path>
  </symbol>
  <symbol role="presentation" viewBox="0 0 24 24" xmlns="http://www.w3.org/2000/svg" id="search">
    <path fill="currentColor" fill-rule="evenodd" d="m16.436 15.085 3.94 4.01a1 1 0 0 1-1.425 1.402l-3.938-4.006a7.5 7.5 0 1 1 1.423-1.406M10.5 16a5.5 5.5 0 1 0 0-11 5.5 5.5 0 0 0 0 11"/>
  </symbol>
  <symbol role="presentation" xmlns="http://www.w3.org/2000/svg" viewBox="0 0 24 24" id="settings">
    <path fill-rule="evenodd" clip-rule="evenodd" d="M12.0017 17.0009C9.23868 17.0009 6.99968 14.7609 6.99968 11.9989C6.99968 9.23586 9.23868 6.99686 12.0017 6.99686C14.7647 6.99686 17.0037 9.23586 17.0037 11.9989C17.0037 14.7609 14.7647 17.0009 12.0017 17.0009ZM20.3697 13.8839C19.5867 13.6119 19.0237 12.8749 19.0237 11.9989C19.0237 11.1229 19.5867 10.3859 20.3687 10.1139C20.6057 10.0319 20.7517 9.78086 20.6837 9.53986C20.4847 8.83586 20.2017 8.16886 19.8477 7.54686C19.7297 7.33886 19.4707 7.26186 19.2497 7.35186C18.8647 7.50986 18.4197 7.55086 17.9587 7.43286C17.2847 7.25886 16.7337 6.70986 16.5557 6.03686C16.4337 5.57386 16.4747 5.12686 16.6317 4.73986C16.7207 4.51986 16.6437 4.26086 16.4357 4.14286C15.8187 3.79386 15.1567 3.51386 14.4607 3.31686C14.2187 3.24886 13.9687 3.39386 13.8867 3.63086C13.6147 4.41386 12.8777 4.97686 12.0017 4.97686C11.1267 4.97686 10.3887 4.41386 10.1177 3.63186C10.0347 3.39486 9.78368 3.24886 9.54268 3.31686C8.83468 3.51686 8.16368 3.80186 7.53868 4.15886C7.33768 4.27386 7.25268 4.52586 7.34068 4.74086C7.48768 5.10186 7.53268 5.51386 7.43868 5.94386C7.28368 6.64986 6.72468 7.24086 6.02568 7.42786C5.56768 7.55086 5.12768 7.51186 4.74568 7.35986C4.52568 7.27186 4.26768 7.34986 4.15068 7.55586C3.79768 8.17786 3.51568 8.84586 3.31768 9.54986C3.24968 9.78886 3.39268 10.0369 3.62568 10.1219C4.39668 10.3999 4.94868 11.1319 4.94868 11.9989C4.94868 12.8659 4.39668 13.5979 3.62468 13.8759C3.39168 13.9599 3.24968 14.2079 3.31668 14.4469C3.49368 15.0739 3.73868 15.6729 4.03968 16.2369C4.15868 16.4589 4.43468 16.5349 4.66368 16.4299C5.25868 16.1569 6.00668 16.1659 6.76768 16.6679C6.88468 16.7449 6.99268 16.8529 7.06968 16.9689C7.59668 17.7679 7.58168 18.5489 7.26768 19.1559C7.15268 19.3789 7.21968 19.6569 7.43568 19.7839C8.08968 20.1679 8.79768 20.4709 9.54468 20.6809C9.78568 20.7489 10.0337 20.6049 10.1147 20.3679C10.3837 19.5819 11.1237 19.0149 12.0017 19.0149C12.8797 19.0149 13.6197 19.5819 13.8887 20.3679C13.9697 20.6039 14.2177 20.7489 14.4587 20.6809C15.1957 20.4739 15.8947 20.1749 16.5427 19.7979C16.7607 19.6709 16.8267 19.3899 16.7097 19.1669C16.3917 18.5589 16.3727 17.7739 16.9007 16.9719C16.9777 16.8559 17.0857 16.7469 17.2027 16.6699C17.9747 16.1589 18.7297 16.1569 19.3277 16.4399C19.5567 16.5479 19.8357 16.4729 19.9557 16.2499C20.2597 15.6859 20.5047 15.0859 20.6837 14.4569C20.7517 14.2159 20.6067 13.9659 20.3697 13.8839Z" fill="currentColor"></path>
  </symbol>
  <symbol role="presentation" xmlns="http://www.w3.org/2000/svg" viewBox="0 0 24 24" id="share">
    <path fill-rule="evenodd" clip-rule="evenodd" d="M12 13C14.7614 13 17 10.7614 17 8C17 5.23858 14.7614 3 12 3C9.23858 3 7 5.23858 7 8C7 9.44777 7.61532 10.7518 8.59871 11.6649C5.31433 13.0065 3 16.233 3 20C3 20.5523 3.44772 21 4 21H12C12.5523 21 13 20.5523 13 20C13 19.4477 12.5523 19 12 19H5.07089C5.55612 15.6077 8.47353 13 12 13ZM15 8C15 9.65685 13.6569 11 12 11C10.3431 11 9 9.65685 9 8C9 6.34315 10.3431 5 12 5C13.6569 5 15 6.34315 15 8Z" fill="currentColor"></path>
    <path d="M17 14C17 13.4477 17.4477 13 18 13C18.5523 13 19 13.4477 19 14V16H21C21.5523 16 22 16.4477 22 17C22 17.5523 21.5523 18 21 18H19V20C19 20.5523 18.5523 21 18 21C17.4477 21 17 20.5523 17 20V18H15C14.4477 18 14 17.5523 14 17C14 16.4477 14.4477 16 15 16H17V14Z" fill="currentColor"></path>
  </symbol>
  <symbol role="presentation" xmlns="http://www.w3.org/2000/svg" viewBox="0 0 24 24" id="square-dots">
    <path fill-rule="evenodd" clip-rule="evenodd" d="M4 5C4 4.44772 4.44772 4 5 4H7C7.55228 4 8 4.44772 8 5V7C8 7.55228 7.55228 8 7 8H5C4.44772 8 4 7.55228 4 7V5ZM4 11C4 10.4477 4.44772 10 5 10H7C7.55228 10 8 10.4477 8 11V13C8 13.5523 7.55228 14 7 14H5C4.44772 14 4 13.5523 4 13V11ZM11 4C10.4477 4 10 4.44772 10 5V7C10 7.55228 10.4477 8 11 8H13C13.5523 8 14 7.55228 14 7V5C14 4.44772 13.5523 4 13 4H11ZM10 11C10 10.4477 10.4477 10 11 10H13C13.5523 10 14 10.4477 14 11V13C14 13.5523 13.5523 14 13 14H11C10.4477 14 10 13.5523 10 13V11ZM17 4C16.4477 4 16 4.44772 16 5V7C16 7.55228 16.4477 8 17 8H19C19.5523 8 20 7.55228 20 7V5C20 4.44772 19.5523 4 19 4H17ZM16 11C16 10.4477 16.4477 10 17 10H19C19.5523 10 20 10.4477 20 11V13C20 13.5523 19.5523 14 19 14H17C16.4477 14 16 13.5523 16 13V11ZM5 16C4.44772 16 4 16.4477 4 17V19C4 19.5523 4.44772 20 5 20H7C7.55228 20 8 19.5523 8 19V17C8 16.4477 7.55228 16 7 16H5ZM10 17C10 16.4477 10.4477 16 11 16H13C13.5523 16 14 16.4477 14 17V19C14 19.5523 13.5523 20 13 20H11C10.4477 20 10 19.5523 10 19V17ZM17 16C16.4477 16 16 16.4477 16 17V19C16 19.5523 16.4477 20 17 20H19C19.5523 20 20 19.5523 20 19V17C20 16.4477 19.5523 16 19 16H17Z" fill="currentColor"></path>
  </symbol>
  <symbol role="presentation" xmlns="http://www.w3.org/2000/svg" viewBox="0 0 14 10" id="table">
    <path fill-rule="evenodd" clip-rule="evenodd" d="M1.66683 9.66665C0.93045 9.66665 0.333496 9.06969 0.333496 8.33331V1.66665C0.333496 0.930267 0.93045 0.333313 1.66683 0.333313H12.3335C13.0699 0.333313 13.6668 0.930267 13.6668 1.66665V8.33331C13.6668 9.06969 13.0699 9.66665 12.3335 9.66665H1.66683ZM12.3335 5.66665V4.33331H5.66683V5.66665H12.3335ZM12.3335 2.99998V1.66665H5.66683V2.99998H12.3335ZM12.3335 6.99998V8.33331H5.66683V6.99998H12.3335ZM1.66683 4.33331V5.66665H4.3335V4.33331H1.66683ZM1.66683 6.99998V8.33331H4.3335V6.99998H1.66683ZM1.66683 2.99998V1.66665H4.3335V2.99998H1.66683Z" fill="currentColor"></path>
  </symbol>
  <symbol role="presentation" xmlns="http://www.w3.org/2000/svg" viewBox="0 0 24 24" id="user">
    <path fill-rule="evenodd" clip-rule="evenodd" d="M12.025 3a5.007 5.007 0 0 0-5.014 5c0 2.761 2.245 5 5.014 5a5.007 5.007 0 0 0 5.015-5c0-2.761-2.245-5-5.015-5M9.017 8c0 1.657 1.347 3 3.008 3a3.004 3.004 0 0 0 3.009-3c0-1.657-1.347-3-3.009-3a3.004 3.004 0 0 0-3.008 3" fill="currentColor"/><path fill-rule="evenodd" clip-rule="evenodd" d="M12.025 11c4.755 0 8.652 3.667 9 8.32a2.004 2.004 0 0 1-1.98 1.68H5.006a2.004 2.004 0 0 1-1.98-1.68c.348-4.653 4.244-8.32 9-8.32m-6.948 8h13.897a7.015 7.015 0 0 0-6.949-6 7.015 7.015 0 0 0-6.948 6m13.968.977v.046z" fill="currentColor"/>
  </symbol>
  <symbol role="presentation" xmlns="http://www.w3.org/2000/svg" viewBox="0 0 24 24" id="boards">
    <path fill-rule="evenodd" clip-rule="evenodd" d="M3 5C3 3.89543 3.89543 3 5 3H19C20.1046 3 21 3.89543 21 5V19C21 20.1046 20.1046 21 19 21H5C3.89543 21 3 20.1046 3 19V5ZM5 6C5 5.44772 5.44772 5 6 5H10C10.5523 5 11 5.44772 11 6V16C11 16.5523 10.5523 17 10 17H6C5.44772 17 5 16.5523 5 16V6ZM14 5C13.4477 5 13 5.44772 13 6V12C13 12.5523 13.4477 13 14 13H18C18.5523 13 19 12.5523 19 12V6C19 5.44772 18.5523 5 18 5H14Z" fill="currentColor"></path>
  </symbol>
  <symbol role="presentation" xmlns="http://www.w3.org/2000/svg" viewBox="0 0 24 24" id="calendar">
    <path fill-rule="evenodd" clip-rule="evenodd" d="M6 4V5H4.995C3.892 5 3 5.893 3 6.994V19.006C3 20.106 3.893 21 4.995 21H19.005C20.108 21 21 20.107 21 19.006V6.994C21 5.895 20.107 5 19.005 5H18V4C18 3.448 17.552 3 17 3C16.448 3 16 3.448 16 4V5H8V4C8 3.448 7.552 3 7 3C6.448 3 6 3.448 6 4ZM5.25 9.571V17.718C5.25 18.273 5.694 18.714 6.243 18.714H17.758C18.3 18.714 18.75 18.268 18.75 17.718V9.571H5.25ZM9 13V10.999H7V13H9ZM17 10.999V13H15V10.999H17ZM11 13H13.001V10.999H11V13ZM7 17V15H9V17H7ZM11 17H13.001V15H11V17ZM17 15V17H15V15H17Z" fill="currentColor"></path>
  </symbol>
  <symbol role="presentation" xmlns="http://www.w3.org/2000/svg" viewBox="0 0 24 24" id="dots">
    <path fill-rule="evenodd" clip-rule="evenodd" d="M5 14C6.10457 14 7 13.1046 7 12C7 10.8954 6.10457 10 5 10C3.89543 10 3 10.8954 3 12C3 13.1046 3.89543 14 5 14ZM12 14C13.1046 14 14 13.1046 14 12C14 10.8954 13.1046 10 12 10C10.8954 10 10 10.8954 10 12C10 13.1046 10.8954 14 12 14ZM21 12C21 13.1046 20.1046 14 19 14C17.8954 14 17 13.1046 17 12C17 10.8954 17.8954 10 19 10C20.1046 10 21 10.8954 21 12Z" fill="currentColor"></path>
  </symbol>
  <symbol role="presentation" viewBox="0 0 24 24" xmlns="http://www.w3.org/2000/svg" id="cross"><path d="M12 3C11.4477 3 11 3.44772 11 4V11L4 11C3.44772 11 3 11.4477 3 12C3 12.5523 3.44772 13 4 13H11V20C11 20.5523 11.4477 21 12 21C12.5523 21 13 20.5523 13 20V13H20C20.5523 13 21 12.5523 21 12C21 11.4477 20.5523 11 20 11L13 11V4C13 3.44772 12.5523 3 12 3Z" fill="currentColor"></path></symbol>
</svg>