<svg>
  <symbol role="presentation" xmlns="http://www.w3.org/2000/svg" viewBox="0 0 24 24" id="group">
    <path fill-rule="evenodd" clip-rule="evenodd" d="M12.505 5.672a5 5 0 0 0-1.985-.645 4 4 0 1 1 6.522 4.572A8 8 0 0 1 22 17a1 1 0 0 1-1 1h-2.223a9 9 0 0 0-.713-2h1.853a6.005 6.005 0 0 0-5.03-4.935 5 5 0 0 0-.03-2.257 2 2 0 1 0-2.352-3.136M10 12a2 2 0 1 0 0-4 2 2 0 0 0 0 4m4-2c0 .992-.361 1.9-.959 2.598A8 8 0 0 1 18 20a1 1 0 0 1-1 1H3a1 1 0 0 1-1-1 8 8 0 0 1 4.959-7.402A4 4 0 1 1 14 10m-4 4a6 6 0 0 1 5.917 5H4.083A6 6 0 0 1 10 14" fill="currentColor"/>
  </symbol>
  <symbol role="presentation" xmlns="http://www.w3.org/2000/svg" viewBox="0 0 512 512" id="left-right-arrows">
    <path d="M504.3 273.6c4.9-4.5 7.7-10.9 7.7-17.6s-2.8-13-7.7-17.6l-112-104c-7-6.5-17.2-8.2-25.9-4.4s-14.4 12.5-14.4 22l0 56-192 0 0-56c0-9.5-5.7-18.2-14.4-22s-18.9-2.1-25.9 4.4l-112 104C2.8 243 0 249.3 0 256s2.8 13 7.7 17.6l112 104c7 6.5 17.2 8.2 25.9 4.4s14.4-12.5 14.4-22l0-56 192 0 0 56c0 9.5 5.7 18.2 14.4 22s18.9 2.1 25.9-4.4l112-104z"></path>
  </symbol>
  <symbol role="presentation" xmlns="http://www.w3.org/2000/svg" viewBox="0 0 24 24" id="lightning">
    <path d="M10.184 4.787a.5.5 0 0 1 .454-.287L17 4.514a.5.5 0 0 1 .383.82l-3.44 4.11h2.916a.5.5 0 0 1 .343.864l-9.58 9.055a.5.5 0 0 1-.782-.603l3.022-5.515H7a.5.5 0 0 1-.453-.713z" fill="currentColor"/>
  </symbol>
  <symbol xmlns="http://www.w3.org/2000/svg" aria-hidden="true" viewBox="0 0 94 32" id="logo-trello">
    <defs>
      <linearGradient id="uid42" x1="9.33821" y1="23.6824" x2="9.33821" y2="5.00599" gradientUnits="userSpaceOnUse">
        <stop stop-color="#0052CC" offset="0%"></stop>
        <stop stop-color="#2684FF" offset="100%"></stop>
      </linearGradient>
    </defs>
    <path fill="var(--ds-text, #172B4D)" fill-rule="evenodd" clip-rule="evenodd" d="M68.749 23.7902C66.249 23.7902 64.6742 22.5776 64.6742 19.7573V5H68.5155V19.2304C68.5155 20.0477 69.0574 20.3381 69.7131 20.3381C69.9021 20.3421 70.0911 20.3331 70.2789 20.3112V23.6315C69.7788 23.7552 69.2639 23.8086 68.749 23.7902ZM38.7121 9.98505V6.37431H26.0297V9.98505H30.3051V23.6825H34.4308V9.98505H38.7121ZM40.1498 23.6825H43.9641V16.6227C43.9641 14.464 45.2276 13.8053 47.9072 14.0149V10.027C45.8443 9.89522 44.6856 10.973 43.9641 12.7904V10.2096H40.1498V23.6825ZM72.6901 19.7573C72.6901 22.5776 74.2619 23.7902 76.7619 23.7902C77.2787 23.809 77.7957 23.7556 78.2978 23.6315V20.3112C78.109 20.333 77.9189 20.342 77.7289 20.3381C77.0732 20.3381 76.5313 20.0477 76.5313 19.2304V5H72.6901V19.7573ZM80.1444 16.9402C80.1444 12.7786 82.5396 9.93129 86.6653 9.93129C90.791 9.93129 93.1353 12.7845 93.1353 16.9402C93.1353 21.0958 90.764 24 86.6653 24C82.5665 24 80.1444 21.0749 80.1444 16.9402ZM83.8809 16.9402C83.8809 18.9701 84.7312 20.5749 86.6653 20.5749C88.5994 20.5749 89.3988 18.9701 89.3988 16.9402C89.3988 14.9103 88.5724 13.3474 86.6653 13.3474C84.7581 13.3474 83.8959 14.9103 83.8959 16.9402H83.8809ZM56.2777 18.3621C55.2023 18.3538 54.1281 18.2909 53.0592 18.1734C53.4124 20.0986 54.8256 20.7692 56.8795 20.7692C58.4004 20.7692 59.8854 20.3501 61.1998 19.9309V23.1734C59.7762 23.7133 58.2642 23.9824 56.7417 23.9668C51.6131 23.9668 49.3436 21.4009 49.3436 17.0806C49.3436 12.934 51.9723 9.94 56.0801 9.94C59.1309 9.94 61.6668 12.0058 61.6668 14.7513C61.6668 17.5776 59.1968 18.3621 56.2777 18.3621ZM57.9513 14.6166C57.9513 13.6136 57.0831 12.8801 56.0022 12.8801L55.9992 12.8711C55.4963 12.8789 55.0046 13.0206 54.5746 13.2816C54.1447 13.5426 53.7921 13.9135 53.5532 14.3561C53.2546 14.9118 53.0751 15.5236 53.0262 16.1525C53.686 16.2551 54.3525 16.3081 55.0202 16.3112C56.5861 16.3112 57.9513 15.91 57.9513 14.6166Z"></path>
    <path fill-rule="evenodd" clip-rule="evenodd" d="M16.4579 5H2.21854C1.63014 5 1.06585 5.23374 0.649794 5.64979C0.233738 6.06585 0 6.63014 0 7.21854V21.4669C0 22.0553 0.233738 22.6196 0.649794 23.0356C1.06585 23.4517 1.63014 23.6854 2.21854 23.6854H16.4579C17.0463 23.6854 17.6106 23.4517 18.0266 23.0356C18.4427 22.6196 18.6764 22.0553 18.6764 21.4669V7.22452C18.6772 6.93268 18.6204 6.64354 18.5093 6.37369C18.3981 6.10383 18.2348 5.85855 18.0287 5.65191C17.8227 5.44527 17.5778 5.28131 17.3083 5.16945C17.0387 5.05758 16.7497 5 16.4579 5V5ZM8.04481 18.4729C8.04481 18.6685 7.96731 18.8561 7.82927 18.9947C7.69123 19.1333 7.50391 19.2116 7.30829 19.2124H4.18558C3.98969 19.2116 3.80205 19.1334 3.66353 18.9949C3.52502 18.8564 3.44685 18.6688 3.44607 18.4729V9.19157C3.44685 8.99568 3.52502 8.80804 3.66353 8.66952C3.80205 8.53101 3.98969 8.45284 4.18558 8.45205H7.30829C7.50391 8.45285 7.69123 8.53111 7.82927 8.66971C7.96731 8.80831 8.04481 8.99595 8.04481 9.19157V18.4729ZM15.2304 14.2185C15.2296 14.4143 15.1514 14.602 15.0129 14.7405C14.8744 14.879 14.6867 14.9572 14.4908 14.958H11.3681C11.1725 14.9572 10.9852 14.8789 10.8471 14.7403C10.7091 14.6017 10.6316 14.4141 10.6316 14.2185V9.19157C10.6316 8.99595 10.7091 8.80831 10.8471 8.66971C10.9852 8.53111 11.1725 8.45285 11.3681 8.45205H14.4908C14.6867 8.45284 14.8744 8.53101 15.0129 8.66952C15.1514 8.80804 15.2296 8.99568 15.2304 9.19157V14.2185Z" fill="url(#uid42)"></path>
  </symbol>
  <symbol role="presentation" viewBox="0 0 24 24" xmlns="http://www.w3.org/2000/svg" id="notification">
    <path fill="currentcolor" fill-rule="evenodd" d="M6.59 17.83a2 2 0 0 0 2.83 0L6.59 15a2 2 0 0 0 0 2.83m4.79-12.35A5.04 5.04 0 0 1 14.95 4c.97 0 1.95.28 2.79.84q.03-.04.07-.07a1.01 1.01 0 1 1 1.35 1.49 5.05 5.05 0 0 1-.64 6.36l-.72.73c-.78.78-1.81 2.21-2.31 3.21l-1.51 3.02c-.25.5-.77.58-1.17.19l-8.56-8.55c-.4-.4-.31-.92.19-1.17l3.02-1.51c.99-.49 2.42-1.53 3.21-2.31zm2.74 9.63c.52-.97 1.57-2.4 2.35-3.18l.73-.73a3.05 3.05 0 0 0 .39-3.83c-.19-.29-.72-.77-.86-.86A3.04 3.04 0 0 0 15.05 6c-.8 0-1.57.31-2.16.89l-.95.95c-.78.79-2.22 1.82-3.2 2.31L7 11.02l6.07 6.07z"/>
  </symbol>
  <symbol role="presentation" xmlns="http://www.w3.org/2000/svg" viewBox="0 0 24 24" id="pencil">
    <g>
        <path fill="none" d="M0 0h24v24H0z"/>
        <path d="M15.728 9.686l-1.414-1.414L5 17.586V19h1.414l9.314-9.314zm1.414-1.414l1.414-1.414-1.414-1.414-1.414 1.414 1.414 1.414zM7.242 21H3v-4.243L16.435 3.322a1 1 0 0 1 1.414 0l2.829 2.829a1 1 0 0 1 0 1.414L7.243 21z"/>
    </g>
  </symbol>
  <symbol role="presentation" xmlns="http://www.w3.org/2000/svg" viewBox="0 0 24 24" id="question-mark">
    <path fill-rule="evenodd" clip-rule="evenodd" d="M2 12C2 6.47667 6.47667 2 12 2C17.5233 2 22 6.47667 22 12C22 17.5233 17.5233 22 12 22C6.47667 22 2 17.5233 2 12ZM4 12C4 16.4188 7.58124 20 12 20C16.4188 20 20 16.4188 20 12C20 7.58124 16.4188 4 12 4C7.58124 4 4 7.58124 4 12ZM8 10C7.99999 7.48383 10.3214 5.51108 12.9389 6.10713C14.3829 6.43513 15.5569 7.60513 15.8899 9.04813C16.3809 11.1771 15.1719 13.0911 13.3589 13.7471C13.1549 13.8201 13.0099 14.0021 13.0099 14.2191V14.0001C13.0099 14.5521 12.5629 15.0001 12.0099 15.0001C11.4579 15.0001 11.0099 14.5521 11.0099 14.0001V12.9871C11.0179 12.4411 11.4599 12.0001 11.9999 12.0001C13.1029 12.0001 13.9999 11.1021 13.9999 10.0001C13.9999 8.89713 13.1029 8.00013 11.9999 8.00013C10.8959 8.00013 9.99935 8.92313 10.0004 10.0271C9.98522 10.5666 9.54291 11 9 11C8.47773 11 8.04856 10.599 8.00385 10.0882C8.00385 10.0882 8 10.0297 8 10ZM12 18C11.448 18 11 17.552 11 17C11 16.448 11.448 16 12 16C12.552 16 13 16.448 13 17C13 17.552 12.552 18 12 18Z" fill="currentColor"></path>
  </symbol>
  <symbol role="presentation" xmlns="http://www.w3.org/2000/svg" viewBox="0 0 24 24" id="rocket">
    <path d="M17.5 2.655c.997-.11 2.035.152 2.864.981L18.95 5.05c-.33-.33-.735-.467-1.24-.411-.55.06-1.214.323-1.961.746-.737.417-1.477.944-2.181 1.46l-.32.235c-.568.42-1.131.835-1.593 1.109-.494.293-1.019.28-1.335.25-.332-.034-1.12-.042-2.376.38-.778.26-1.728.88-2.538 1.499l-.062.047c.247.052.507.1.769.143a29 29 0 0 0 1.916.247l.03.003h.008l.899 1.102v.006l-.003.022a10 10 0 0 0-.039.44c-.021.294-.043.688-.044 1.098 0 .416.02.818.073 1.137.037.225.078.333.092.37l.005.017.016.005c.038.014.146.055.371.092.32.053.72.073 1.137.072.41 0 .804-.022 1.097-.043l.468-.042 1.102.899.063.591c.042.365.105.855.188 1.363.043.262.091.522.143.77l.047-.063c.618-.81 1.239-1.76 1.5-2.538.42-1.255.413-2.044.38-2.376-.032-.316-.044-.84.25-1.335.273-.462.688-1.024 1.108-1.594l.235-.319c.517-.704 1.043-1.444 1.46-2.18.423-.748.686-1.411.746-1.963.056-.504-.08-.908-.411-1.239l1.414-1.414c.829.829 1.09 1.867.98 2.863-.104.95-.52 1.892-.994 2.73-.48.848-1.068 1.671-1.588 2.38l-.255.346c-.412.56-.745 1.012-.963 1.373a1 1 0 0 0 .004.145c.062.627.032 1.7-.474 3.21-.372 1.11-1.168 2.28-1.807 3.117a23 23 0 0 1-1.213 1.456l-.027.03-.003.003a.994.994 0 0 1-1.435.028 2.3 2.3 0 0 1-.453-.7 6 6 0 0 1-.26-.745 16 16 0 0 1-.353-1.652c-.066-.405-.12-.795-.162-1.126-.241.012-.511.02-.792.021-.465.001-.99-.02-1.464-.098-.413-.068-1.052-.237-1.469-.653-.416-.417-.585-1.056-.653-1.469a9 9 0 0 1-.098-1.464c0-.28.01-.55.021-.792a30 30 0 0 1-1.126-.162 16 16 0 0 1-1.652-.352 6 6 0 0 1-.746-.261 2.3 2.3 0 0 1-.699-.453 1 1 0 0 1-.29-.722c.005-.27.12-.528.318-.713l.003-.003.007-.006.023-.021a13 13 0 0 1 .393-.35c.262-.225.63-.533 1.063-.863.838-.64 2.008-1.435 3.117-1.806 1.51-.507 2.583-.537 3.21-.475q.11.01.145.004c.361-.217.813-.55 1.373-.963l.347-.255c.708-.52 1.53-1.108 2.38-1.588.837-.474 1.78-.89 2.729-.995" fill="currentColor"/><path d="M15.414 8.586a1 1 0 1 0 1.414-1.414 1 1 0 0 0-1.414 1.414" fill="currentColor"/>
  </symbol>
  <symbol role="presentation" viewBox="0 0 24 24" xmlns="http://www.w3.org/2000/svg" id="search">
    <path fill="currentColor" fill-rule="evenodd" d="m16.436 15.085 3.94 4.01a1 1 0 0 1-1.425 1.402l-3.938-4.006a7.5 7.5 0 1 1 1.423-1.406M10.5 16a5.5 5.5 0 1 0 0-11 5.5 5.5 0 0 0 0 11"/>
  </symbol>
  <symbol role="presentation" xmlns="http://www.w3.org/2000/svg" viewBox="0 0 24 24" id="settings">
    <path fill-rule="evenodd" clip-rule="evenodd" d="M12.0017 17.0009C9.23868 17.0009 6.99968 14.7609 6.99968 11.9989C6.99968 9.23586 9.23868 6.99686 12.0017 6.99686C14.7647 6.99686 17.0037 9.23586 17.0037 11.9989C17.0037 14.7609 14.7647 17.0009 12.0017 17.0009ZM20.3697 13.8839C19.5867 13.6119 19.0237 12.8749 19.0237 11.9989C19.0237 11.1229 19.5867 10.3859 20.3687 10.1139C20.6057 10.0319 20.7517 9.78086 20.6837 9.53986C20.4847 8.83586 20.2017 8.16886 19.8477 7.54686C19.7297 7.33886 19.4707 7.26186 19.2497 7.35186C18.8647 7.50986 18.4197 7.55086 17.9587 7.43286C17.2847 7.25886 16.7337 6.70986 16.5557 6.03686C16.4337 5.57386 16.4747 5.12686 16.6317 4.73986C16.7207 4.51986 16.6437 4.26086 16.4357 4.14286C15.8187 3.79386 15.1567 3.51386 14.4607 3.31686C14.2187 3.24886 13.9687 3.39386 13.8867 3.63086C13.6147 4.41386 12.8777 4.97686 12.0017 4.97686C11.1267 4.97686 10.3887 4.41386 10.1177 3.63186C10.0347 3.39486 9.78368 3.24886 9.54268 3.31686C8.83468 3.51686 8.16368 3.80186 7.53868 4.15886C7.33768 4.27386 7.25268 4.52586 7.34068 4.74086C7.48768 5.10186 7.53268 5.51386 7.43868 5.94386C7.28368 6.64986 6.72468 7.24086 6.02568 7.42786C5.56768 7.55086 5.12768 7.51186 4.74568 7.35986C4.52568 7.27186 4.26768 7.34986 4.15068 7.55586C3.79768 8.17786 3.51568 8.84586 3.31768 9.54986C3.24968 9.78886 3.39268 10.0369 3.62568 10.1219C4.39668 10.3999 4.94868 11.1319 4.94868 11.9989C4.94868 12.8659 4.39668 13.5979 3.62468 13.8759C3.39168 13.9599 3.24968 14.2079 3.31668 14.4469C3.49368 15.0739 3.73868 15.6729 4.03968 16.2369C4.15868 16.4589 4.43468 16.5349 4.66368 16.4299C5.25868 16.1569 6.00668 16.1659 6.76768 16.6679C6.88468 16.7449 6.99268 16.8529 7.06968 16.9689C7.59668 17.7679 7.58168 18.5489 7.26768 19.1559C7.15268 19.3789 7.21968 19.6569 7.43568 19.7839C8.08968 20.1679 8.79768 20.4709 9.54468 20.6809C9.78568 20.7489 10.0337 20.6049 10.1147 20.3679C10.3837 19.5819 11.1237 19.0149 12.0017 19.0149C12.8797 19.0149 13.6197 19.5819 13.8887 20.3679C13.9697 20.6039 14.2177 20.7489 14.4587 20.6809C15.1957 20.4739 15.8947 20.1749 16.5427 19.7979C16.7607 19.6709 16.8267 19.3899 16.7097 19.1669C16.3917 18.5589 16.3727 17.7739 16.9007 16.9719C16.9777 16.8559 17.0857 16.7469 17.2027 16.6699C17.9747 16.1589 18.7297 16.1569 19.3277 16.4399C19.5567 16.5479 19.8357 16.4729 19.9557 16.2499C20.2597 15.6859 20.5047 15.0859 20.6837 14.4569C20.7517 14.2159 20.6067 13.9659 20.3697 13.8839Z" fill="currentColor"></path>
  </symbol>
  <symbol role="presentation" xmlns="http://www.w3.org/2000/svg" viewBox="0 0 24 24" id="share">
    <path fill-rule="evenodd" clip-rule="evenodd" d="M12 13C14.7614 13 17 10.7614 17 8C17 5.23858 14.7614 3 12 3C9.23858 3 7 5.23858 7 8C7 9.44777 7.61532 10.7518 8.59871 11.6649C5.31433 13.0065 3 16.233 3 20C3 20.5523 3.44772 21 4 21H12C12.5523 21 13 20.5523 13 20C13 19.4477 12.5523 19 12 19H5.07089C5.55612 15.6077 8.47353 13 12 13ZM15 8C15 9.65685 13.6569 11 12 11C10.3431 11 9 9.65685 9 8C9 6.34315 10.3431 5 12 5C13.6569 5 15 6.34315 15 8Z" fill="currentColor"></path>
    <path d="M17 14C17 13.4477 17.4477 13 18 13C18.5523 13 19 13.4477 19 14V16H21C21.5523 16 22 16.4477 22 17C22 17.5523 21.5523 18 21 18H19V20C19 20.5523 18.5523 21 18 21C17.4477 21 17 20.5523 17 20V18H15C14.4477 18 14 17.5523 14 17C14 16.4477 14.4477 16 15 16H17V14Z" fill="currentColor"></path>
  </symbol>
  <symbol role="presentation" xmlns="http://www.w3.org/2000/svg" viewBox="0 0 24 24" id="square-dots">
    <path fill-rule="evenodd" clip-rule="evenodd" d="M4 5C4 4.44772 4.44772 4 5 4H7C7.55228 4 8 4.44772 8 5V7C8 7.55228 7.55228 8 7 8H5C4.44772 8 4 7.55228 4 7V5ZM4 11C4 10.4477 4.44772 10 5 10H7C7.55228 10 8 10.4477 8 11V13C8 13.5523 7.55228 14 7 14H5C4.44772 14 4 13.5523 4 13V11ZM11 4C10.4477 4 10 4.44772 10 5V7C10 7.55228 10.4477 8 11 8H13C13.5523 8 14 7.55228 14 7V5C14 4.44772 13.5523 4 13 4H11ZM10 11C10 10.4477 10.4477 10 11 10H13C13.5523 10 14 10.4477 14 11V13C14 13.5523 13.5523 14 13 14H11C10.4477 14 10 13.5523 10 13V11ZM17 4C16.4477 4 16 4.44772 16 5V7C16 7.55228 16.4477 8 17 8H19C19.5523 8 20 7.55228 20 7V5C20 4.44772 19.5523 4 19 4H17ZM16 11C16 10.4477 16.4477 10 17 10H19C19.5523 10 20 10.4477 20 11V13C20 13.5523 19.5523 14 19 14H17C16.4477 14 16 13.5523 16 13V11ZM5 16C4.44772 16 4 16.4477 4 17V19C4 19.5523 4.44772 20 5 20H7C7.55228 20 8 19.5523 8 19V17C8 16.4477 7.55228 16 7 16H5ZM10 17C10 16.4477 10.4477 16 11 16H13C13.5523 16 14 16.4477 14 17V19C14 19.5523 13.5523 20 13 20H11C10.4477 20 10 19.5523 10 19V17ZM17 16C16.4477 16 16 16.4477 16 17V19C16 19.5523 16.4477 20 17 20H19C19.5523 20 20 19.5523 20 19V17C20 16.4477 19.5523 16 19 16H17Z" fill="currentColor"></path>
  </symbol>
  <symbol role="presentation" xmlns="http://www.w3.org/2000/svg" viewBox="0 0 24 24" id="star">
    <path d="M22 9.81a1 1 0 0 0-.83-.69l-5.7-.78-2.59-4.81a1 1 0 0 0-1.76 0L8.57 8.34l-5.7.78a1 1 0 0 0-.82.69 1 1 0 0 0 .28 1l4.09 3.73-1 5.24a1 1 0 0 0 1.46 1.12L12 18.38l5.12 2.52a1 1 0 0 0 .44.1 1 1 0 0 0 1-1.18l-1-5.24 4.09-3.73A1 1 0 0 0 22 9.81"/>
  </symbol>
  <symbol role="presentation" xmlns="http://www.w3.org/2000/svg" viewBox="0 0 14 10" id="table">
    <path fill-rule="evenodd" clip-rule="evenodd" d="M1.66683 9.66665C0.93045 9.66665 0.333496 9.06969 0.333496 8.33331V1.66665C0.333496 0.930267 0.93045 0.333313 1.66683 0.333313H12.3335C13.0699 0.333313 13.6668 0.930267 13.6668 1.66665V8.33331C13.6668 9.06969 13.0699 9.66665 12.3335 9.66665H1.66683ZM12.3335 5.66665V4.33331H5.66683V5.66665H12.3335ZM12.3335 2.99998V1.66665H5.66683V2.99998H12.3335ZM12.3335 6.99998V8.33331H5.66683V6.99998H12.3335ZM1.66683 4.33331V5.66665H4.3335V4.33331H1.66683ZM1.66683 6.99998V8.33331H4.3335V6.99998H1.66683ZM1.66683 2.99998V1.66665H4.3335V2.99998H1.66683Z" fill="currentColor"></path>
  </symbol>
  <symbol role="presentation" xmlns="http://www.w3.org/2000/svg" viewBox="0 0 16 16" transform="matrix(6.123233995736766e-17,1,-1,6.123233995736766e-17,0,0)" id="three-dots">
    <path d="M9.5 13a1.5 1.5 0 1 1-3 0 1.5 1.5 0 0 1 3 0m0-5a1.5 1.5 0 1 1-3 0 1.5 1.5 0 0 1 3 0m0-5a1.5 1.5 0 1 1-3 0 1.5 1.5 0 0 1 3 0" fill="currentColor"></path>
  </symbol>
  <symbol role="presentation" xmlns="http://www.w3.org/2000/svg" viewBox="0 0 24 24" id="user">
    <path fill-rule="evenodd" clip-rule="evenodd" d="M12.025 3a5.007 5.007 0 0 0-5.014 5c0 2.761 2.245 5 5.014 5a5.007 5.007 0 0 0 5.015-5c0-2.761-2.245-5-5.015-5M9.017 8c0 1.657 1.347 3 3.008 3a3.004 3.004 0 0 0 3.009-3c0-1.657-1.347-3-3.009-3a3.004 3.004 0 0 0-3.008 3" fill="currentColor"/><path fill-rule="evenodd" clip-rule="evenodd" d="M12.025 11c4.755 0 8.652 3.667 9 8.32a2.004 2.004 0 0 1-1.98 1.68H5.006a2.004 2.004 0 0 1-1.98-1.68c.348-4.653 4.244-8.32 9-8.32m-6.948 8h13.897a7.015 7.015 0 0 0-6.949-6 7.015 7.015 0 0 0-6.948 6m13.968.977v.046z" fill="currentColor"/>
  </symbol>
  <symbol role="presentation" xmlns="http://www.w3.org/2000/svg" viewBox="0 0 24 24" id="bars">
    <path fill-rule="evenodd" clip-rule="evenodd" d="M4.61799 6C3.87461 6 3.39111 6.78231 3.72356 7.44721L3.99996 8H20L20.2763 7.44721C20.6088 6.78231 20.1253 6 19.3819 6H4.61799ZM10.8618 17.7236C10.9465 17.893 11.1196 18 11.309 18H12.6909C12.8803 18 13.0535 17.893 13.1382 17.7236L14 16H9.99996L10.8618 17.7236ZM17 13H6.99996L5.99996 11H18L17 13Z" fill="currentColor"></path>
  </symbol>
  <symbol role="presentation" xmlns="http://www.w3.org/2000/svg" viewBox="0 0 24 24" id="boards">
    <path fill-rule="evenodd" clip-rule="evenodd" d="M3 5C3 3.89543 3.89543 3 5 3H19C20.1046 3 21 3.89543 21 5V19C21 20.1046 20.1046 21 19 21H5C3.89543 21 3 20.1046 3 19V5ZM5 6C5 5.44772 5.44772 5 6 5H10C10.5523 5 11 5.44772 11 6V16C11 16.5523 10.5523 17 10 17H6C5.44772 17 5 16.5523 5 16V6ZM14 5C13.4477 5 13 5.44772 13 6V12C13 12.5523 13.4477 13 14 13H18C18.5523 13 19 12.5523 19 12V6C19 5.44772 18.5523 5 18 5H14Z" fill="currentColor"></path>
  </symbol>
  <symbol role="presentation" xmlns="http://www.w3.org/2000/svg" viewBox="0 0 24 24" id="bottom-arrow">
    <path d="M11.2929 16.7071L4.22185 9.63606C3.83132 9.24554 3.83132 8.61237 4.22185 8.22185C4.61237 7.83133 5.24554 7.83133 5.63606 8.22185L12 14.5858L18.364 8.22185C18.7545 7.83132 19.3877 7.83132 19.7782 8.22185C20.1687 8.61237 20.1687 9.24554 19.7782 9.63606L12.7071 16.7071C12.3166 17.0977 11.6834 17.0977 11.2929 16.7071Z" fill="currentColor"></path>
  </symbol>
  <symbol role="presentation" xmlns="http://www.w3.org/2000/svg" viewBox="0 0 24 24" id="calendar">
    <path fill-rule="evenodd" clip-rule="evenodd" d="M6 4V5H4.995C3.892 5 3 5.893 3 6.994V19.006C3 20.106 3.893 21 4.995 21H19.005C20.108 21 21 20.107 21 19.006V6.994C21 5.895 20.107 5 19.005 5H18V4C18 3.448 17.552 3 17 3C16.448 3 16 3.448 16 4V5H8V4C8 3.448 7.552 3 7 3C6.448 3 6 3.448 6 4ZM5.25 9.571V17.718C5.25 18.273 5.694 18.714 6.243 18.714H17.758C18.3 18.714 18.75 18.268 18.75 17.718V9.571H5.25ZM9 13V10.999H7V13H9ZM17 10.999V13H15V10.999H17ZM11 13H13.001V10.999H11V13ZM7 17V15H9V17H7ZM11 17H13.001V15H11V17ZM17 15V17H15V15H17Z" fill="currentColor"></path>
  </symbol>
  <symbol role="presentation" xmlns="http://www.w3.org/2000/svg" viewBox="0 0 24 24" id="dots">
    <path fill-rule="evenodd" clip-rule="evenodd" d="M5 14C6.10457 14 7 13.1046 7 12C7 10.8954 6.10457 10 5 10C3.89543 10 3 10.8954 3 12C3 13.1046 3.89543 14 5 14ZM12 14C13.1046 14 14 13.1046 14 12C14 10.8954 13.1046 10 12 10C10.8954 10 10 10.8954 10 12C10 13.1046 10.8954 14 12 14ZM21 12C21 13.1046 20.1046 14 19 14C17.8954 14 17 13.1046 17 12C17 10.8954 17.8954 10 19 10C20.1046 10 21 10.8954 21 12Z" fill="currentColor"></path>
  </symbol>
  <symbol role="presentation" xmlns="http://www.w3.org/2000/svg" viewBox="0 0 512 512" id="front-arrows">
    <path d="M439 7c9.4-9.4 24.6-9.4 33.9 0l32 32c9.4 9.4 9.4 24.6 0 33.9l-87 87 39 39c6.9 6.9 8.9 17.2 5.2 26.2s-12.5 14.8-22.2 14.8l-144 0c-13.3 0-24-10.7-24-24l0-144c0-9.7 5.8-18.5 14.8-22.2s19.3-1.7 26.2 5.2l39 39L439 7zM72 272l144 0c13.3 0 24 10.7 24 24l0 144c0 9.7-5.8 18.5-14.8 22.2s-19.3 1.7-26.2-5.2l-39-39L73 505c-9.4 9.4-24.6 9.4-33.9 0L7 473c-9.4-9.4-9.4-24.6 0-33.9l87-87L55 313c-6.9-6.9-8.9-17.2-5.2-26.2s12.5-14.8 22.2-14.8z"></path>
  </symbol>
  <symbol role="presentation" viewBox="0 0 24 24" xmlns="http://www.w3.org/2000/svg" id="list"><path fill-rule="evenodd" clip-rule="evenodd" d="M2 7V15C2 16.1046 2.89543 17 4 17H6C7.10457 17 8 16.1046 8 15V7C8 5.89543 7.10457 5 6 5H4C2.89543 5 2 5.89543 2 7ZM4 7V15H6V7L4 7Z" fill="currentColor"></path><path fill-rule="evenodd" clip-rule="evenodd" d="M9 7V13C9 14.1046 9.89543 15 11 15H13C14.1046 15 15 14.1046 15 13V7C15 5.89543 14.1046 5 13 5H11C9.89543 5 9 5.89543 9 7ZM11 7V13H13V7L11 7Z" fill="currentColor"></path><path fill-rule="evenodd" clip-rule="evenodd" d="M16 17V7C16 5.89543 16.8954 5 18 5H20C21.1046 5 22 5.89543 22 7V17C22 18.1046 21.1046 19 20 19H18C16.8954 19 16 18.1046 16 17ZM18 17V7L20 7V17H18Z" fill="currentColor"></path></symbol>
  <symbol role="presentation" viewBox="0 0 24 24" xmlns="http://www.w3.org/2000/svg" id="cross"><path d="M12 3C11.4477 3 11 3.44772 11 4V11L4 11C3.44772 11 3 11.4477 3 12C3 12.5523 3.44772 13 4 13H11V20C11 20.5523 11.4477 21 12 21C12.5523 21 13 20.5523 13 20V13H20C20.5523 13 21 12.5523 21 12C21 11.4477 20.5523 11 20 11L13 11V4C13 3.44772 12.5523 3 12 3Z" fill="currentColor"></path></symbol>
</svg>